<?xml version="1.0" encoding="utf-8"?>
<!-- Generator: Adobe Illustrator 21.0.2, SVG Export Plug-In . SVG Version: 6.00 Build 0)  -->
<svg version="1.1" id="Capa_1" xmlns="http://www.w3.org/2000/svg" xmlns:xlink="http://www.w3.org/1999/xlink" x="0px" y="0px"
	 viewBox="0 0 576.6 182.8" style="enable-background:new 0 0 576.6 182.8;" xml:space="preserve">
<style type="text/css">
	.st0{fill:#00C1DE;}
	.st1{fill:#3D404C;}
	.st2{fill:#FFFFFF;}
</style>
<g>
	<path d="M185.3,85.2h-3.6V56h8.1c1.2,0,2.3,0.1,3.3,0.2c1,0.1,2,0.4,2.8,0.7c1.7,0.6,3.1,1.6,4,2.8c0.9,1.2,1.4,2.8,1.4,4.6
		c0,1.5-0.3,2.8-0.9,3.9c-0.6,1.1-1.4,2.1-2.6,2.8c-1.1,0.8-2.5,1.3-4.1,1.7c-1.6,0.4-3.4,0.6-5.5,0.6c-1,0-2,0-3-0.1V85.2z
		 M185.3,70c0.5,0.1,1,0.1,1.5,0.1c0.5,0,1,0,1.5,0c1.7,0,3.1-0.1,4.3-0.4c1.2-0.3,2.1-0.6,2.9-1.1c0.7-0.5,1.3-1.1,1.6-1.8
		c0.3-0.7,0.5-1.5,0.5-2.5c0-1.1-0.3-2.1-0.8-2.8c-0.5-0.7-1.3-1.3-2.3-1.7c-0.6-0.2-1.3-0.4-2.2-0.5c-0.8-0.1-1.8-0.1-2.8-0.1h-4.1
		V70z"/>
	<path d="M223.3,74.9c0,1.6-0.2,3.1-0.7,4.5c-0.5,1.3-1.1,2.5-2,3.4c-0.9,0.9-1.9,1.7-3.1,2.2c-1.2,0.5-2.6,0.8-4.1,0.8
		c-1.5,0-2.9-0.3-4.1-0.8c-1.2-0.5-2.2-1.3-3.1-2.2c-0.9-1-1.5-2.1-2-3.4c-0.5-1.3-0.7-2.8-0.7-4.5c0-1.6,0.2-3.1,0.7-4.5
		c0.5-1.3,1.1-2.5,2-3.4c0.8-1,1.9-1.7,3.1-2.2c1.2-0.5,2.6-0.8,4.1-0.8c1.5,0,2.9,0.3,4.1,0.8c1.2,0.5,2.3,1.3,3.1,2.2
		c0.8,1,1.5,2.1,1.9,3.4C223.1,71.7,223.3,73.2,223.3,74.9 M219.8,74.9c0-1.3-0.2-2.4-0.5-3.4c-0.3-1-0.7-1.8-1.3-2.5
		c-0.6-0.7-1.2-1.2-2-1.6c-0.8-0.4-1.6-0.5-2.5-0.5c-0.9,0-1.8,0.2-2.5,0.5c-0.8,0.4-1.4,0.9-2,1.6c-0.6,0.7-1,1.5-1.3,2.5
		c-0.3,1-0.5,2.1-0.5,3.4c0,1.3,0.2,2.4,0.5,3.4c0.3,1,0.8,1.8,1.3,2.5c0.6,0.7,1.2,1.2,2,1.6c0.8,0.4,1.6,0.5,2.5,0.5
		c0.9,0,1.8-0.2,2.5-0.5c0.8-0.4,1.4-0.9,2-1.6c0.6-0.7,1-1.5,1.3-2.5C219.6,77.3,219.8,76.1,219.8,74.9"/>
	<path d="M231.9,67.4L231.9,67.4c0.4-0.5,0.9-0.9,1.3-1.3c0.5-0.4,1-0.8,1.5-1.1c0.6-0.3,1.2-0.6,1.9-0.7c0.7-0.2,1.4-0.3,2.2-0.3
		c0.9,0,1.8,0.1,2.7,0.4c0.8,0.3,1.6,0.7,2.2,1.3c0.6,0.6,1.1,1.3,1.5,2.3c0.4,0.9,0.5,2.1,0.5,3.5v13.9h-3.4V71.9
		c0-1.8-0.3-3.1-1-3.9c-0.7-0.8-1.7-1.2-3-1.2c-1.2,0-2.3,0.3-3.4,1c-1.1,0.6-2,1.5-2.8,2.7v14.7h-3.4V64.5h2.6L231.9,67.4z"/>
	<path d="M263.1,85.3c-0.3,0.1-0.7,0.2-1.3,0.3c-0.6,0.1-1.3,0.2-2.1,0.2c-1.1,0-2-0.1-2.8-0.4c-0.8-0.3-1.5-0.7-2-1.2
		c-0.5-0.5-0.9-1.1-1.2-1.8c-0.3-0.7-0.4-1.5-0.4-2.4V67.4h-4v-2.9h4v-5.7h3.4v5.7h6.2v2.9h-6.2v12.1c0,0.5,0.1,0.9,0.2,1.3
		c0.1,0.4,0.4,0.8,0.7,1.1c0.3,0.3,0.7,0.5,1.1,0.7c0.5,0.2,1,0.3,1.7,0.3c0.4,0,0.9,0,1.4-0.1c0.5-0.1,1-0.2,1.4-0.3V85.3z"/>
	<path d="M267.9,55.9h3.4v3.8h-3.4V55.9z M267.9,64.5h3.4v20.7h-3.4V64.5z"/>
	<path d="M282.5,67.4v17.8h-3.4V67.4h-3.6v-2.9h3.6v-2.4c0-1.6,0.3-3,0.8-4.2c0.5-1.1,1.3-2.1,2.2-2.8c0.9-0.7,1.9-1.2,3.1-1.5
		c1.1-0.3,2.3-0.5,3.5-0.5c0.4,0,0.9,0,1.4,0.1c0.5,0,0.9,0.1,1.4,0.2c0.5,0.1,0.9,0.1,1.3,0.2c0.4,0.1,0.8,0.2,1.1,0.3v2.9
		c-0.8-0.2-1.6-0.4-2.4-0.5c-0.8-0.1-1.6-0.2-2.4-0.2c-2.1,0-3.8,0.5-4.9,1.5c-1.1,1-1.7,2.5-1.7,4.6v2.4h12.8v20.7h-3.4V67.4H282.5
		z"/>
	<path d="M311,63.9c1,0,2,0.1,2.9,0.3c0.9,0.2,1.7,0.5,2.4,0.9v2.8c-0.9-0.3-1.8-0.6-2.5-0.8c-0.8-0.2-1.6-0.3-2.4-0.3
		c-0.8,0-1.7,0.1-2.5,0.4c-0.8,0.3-1.6,0.7-2.2,1.4c-0.7,0.6-1.2,1.5-1.6,2.5c-0.4,1-0.6,2.3-0.6,3.9c0,1.1,0.1,2.2,0.4,3.1
		c0.3,0.9,0.7,1.8,1.3,2.5c0.6,0.7,1.3,1.2,2.2,1.6c0.9,0.4,1.9,0.6,3.1,0.6c0.8,0,1.7-0.1,2.6-0.3c0.9-0.2,1.7-0.4,2.5-0.8v2.8
		c-0.2,0.1-0.6,0.3-1,0.4c-0.4,0.2-0.8,0.3-1.3,0.4c-0.5,0.1-1,0.2-1.5,0.3c-0.5,0.1-1.1,0.1-1.6,0.1c-1.4,0-2.7-0.2-4-0.6
		c-1.2-0.4-2.3-1.1-3.3-1.9c-0.9-0.9-1.7-2-2.2-3.3c-0.5-1.3-0.8-2.9-0.8-4.8c0-1.4,0.1-2.6,0.4-3.7c0.3-1.1,0.7-2.1,1.2-2.9
		c0.5-0.8,1.1-1.5,1.7-2.1c0.7-0.6,1.4-1.1,2.1-1.4c0.7-0.4,1.5-0.6,2.3-0.8C309.4,64,310.2,63.9,311,63.9"/>
	<path d="M321.8,55.9h3.4v3.8h-3.4V55.9z M321.9,64.5h3.4v20.7h-3.4V64.5z"/>
	<path d="M344.2,82.9L344.2,82.9c-0.4,0.4-0.7,0.7-1.1,1c-0.4,0.3-0.9,0.6-1.5,0.9c-0.6,0.3-1.2,0.5-1.8,0.6
		c-0.7,0.2-1.4,0.2-2.1,0.2c-1,0-1.9-0.2-2.8-0.4c-0.8-0.3-1.6-0.7-2.2-1.3c-0.6-0.6-1.1-1.3-1.4-2.1c-0.3-0.8-0.5-1.8-0.5-2.8
		c0-1,0.2-2,0.6-2.8c0.4-0.8,0.9-1.5,1.6-2.1c0.7-0.6,1.5-1,2.4-1.3c0.9-0.3,2-0.5,3.1-0.5c1.1,0,2.1,0.1,3,0.3
		c0.9,0.2,1.7,0.4,2.4,0.7h0.1V72c0-0.6,0-1.1-0.1-1.5c-0.1-0.4-0.2-0.8-0.4-1.2c-0.4-0.7-1-1.3-1.8-1.7c-0.8-0.5-1.9-0.7-3.4-0.7
		c-1,0-2,0.1-3,0.3c-0.9,0.2-1.8,0.5-2.8,0.8v-2.8c0.3-0.2,0.8-0.3,1.2-0.5c0.5-0.2,1-0.3,1.5-0.4c0.5-0.1,1.1-0.2,1.7-0.3
		c0.6-0.1,1.2-0.1,1.7-0.1c2.1,0,3.8,0.4,5.1,1.1c1.3,0.7,2.3,1.7,2.9,2.9c0.2,0.5,0.4,1,0.5,1.5c0.1,0.6,0.1,1.2,0.1,1.8v13.8h-2.8
		L344.2,82.9z M344,76.1c-0.6-0.2-1.4-0.3-2.2-0.5c-0.9-0.2-1.8-0.2-2.8-0.3c-1.4,0-2.6,0.3-3.4,0.9c-0.8,0.6-1.2,1.5-1.2,2.8
		c0,0.6,0.1,1.2,0.3,1.7c0.2,0.5,0.5,0.9,0.8,1.2c0.4,0.3,0.8,0.5,1.3,0.7c0.5,0.1,1,0.2,1.6,0.2c0.7,0,1.4-0.1,2-0.3
		c0.6-0.2,1.2-0.5,1.7-0.8c0.5-0.3,0.9-0.6,1.2-0.9c0.3-0.3,0.6-0.5,0.7-0.7V76.1z"/>
	<path d="M373.3,82.6c1.1,0,2-0.1,2.8-0.4c0.8-0.2,1.5-0.6,2.1-1.1c0.6-0.4,1.1-1,1.5-1.6c0.4-0.6,0.7-1.3,0.9-2.1
		c0.1-0.5,0.2-1,0.3-1.6c0.1-0.6,0.1-1.2,0.1-1.7V56h3.6v18c0,0.7,0,1.4-0.1,2.1c-0.1,0.7-0.2,1.4-0.3,2.1c-0.3,1.1-0.7,2.1-1.2,3
		c-0.6,0.9-1.3,1.7-2.2,2.4c-0.9,0.7-2,1.2-3.2,1.6c-1.2,0.4-2.7,0.6-4.4,0.6c-1.6,0-3-0.2-4.2-0.5c-1.2-0.4-2.2-0.8-3.1-1.5
		c-0.9-0.6-1.6-1.4-2.1-2.2c-0.6-0.8-1-1.8-1.3-2.8c-0.2-0.7-0.4-1.5-0.5-2.3c-0.1-0.8-0.1-1.6-0.1-2.4V56h3.6v18.1
		c0,0.6,0,1.3,0.1,2c0.1,0.7,0.2,1.3,0.4,1.9c0.5,1.4,1.4,2.5,2.5,3.3C369.8,82.2,371.3,82.6,373.3,82.6"/>
	<path d="M394.8,67.4L394.8,67.4c0.4-0.5,0.9-0.9,1.3-1.3c0.5-0.4,1-0.8,1.5-1.1c0.6-0.3,1.2-0.6,1.9-0.7c0.7-0.2,1.4-0.3,2.2-0.3
		c0.9,0,1.8,0.1,2.7,0.4c0.8,0.3,1.6,0.7,2.2,1.3c0.6,0.6,1.1,1.3,1.5,2.3s0.5,2.1,0.5,3.5v13.9h-3.4V71.9c0-1.8-0.3-3.1-1-3.9
		c-0.7-0.8-1.7-1.2-3-1.2c-1.2,0-2.3,0.3-3.4,1c-1.1,0.6-2,1.5-2.8,2.7v14.7h-3.4V64.5h2.6L394.8,67.4z"/>
	<path d="M415.2,55.9h3.4v3.8h-3.4V55.9z M415.3,64.5h3.4v20.7h-3.4V64.5z"/>
	<path d="M432.5,81.8c0.5-1.5,1.2-3.4,2-5.8l4.2-11.5h3.4l-7.8,20.7h-3.5l-7.8-20.7h3.4l4.1,11.5C431.2,78.3,431.9,80.2,432.5,81.8
		L432.5,81.8z"/>
	<path d="M456,82.8c1.1,0,2.1-0.1,3.1-0.3c0.9-0.2,1.8-0.4,2.8-0.8v2.8c-0.7,0.4-1.7,0.7-2.7,0.9c-1.1,0.2-2.3,0.3-3.5,0.3
		c-1.5,0-2.9-0.2-4.2-0.6c-1.3-0.4-2.4-1-3.4-1.8c-0.9-0.8-1.7-2-2.2-3.3c-0.5-1.4-0.8-3-0.8-4.9c0-1.9,0.3-3.5,0.8-4.9
		c0.5-1.4,1.2-2.5,2.1-3.5c0.9-0.9,1.9-1.6,3-2.1c1.1-0.5,2.3-0.7,3.6-0.7c1.2,0,2.2,0.2,3.3,0.6c1,0.4,1.9,1,2.6,1.8
		c0.7,0.8,1.3,1.9,1.8,3.2c0.4,1.3,0.6,2.9,0.6,4.7v0.4c0,0.1,0,0.4,0,0.8h-14.3c0,1.3,0.2,2.4,0.6,3.4c0.4,0.9,0.9,1.7,1.6,2.3
		c0.7,0.6,1.5,1,2.4,1.3C453.9,82.7,454.9,82.8,456,82.8 M454.2,66.8c-0.8,0-1.5,0.2-2.2,0.5c-0.7,0.3-1.3,0.7-1.8,1.2
		c-0.5,0.5-0.9,1.1-1.2,1.8c-0.3,0.7-0.5,1.5-0.6,2.3h10.6c0-0.8-0.1-1.6-0.3-2.3c-0.2-0.7-0.5-1.3-0.9-1.8
		c-0.4-0.5-0.9-0.9-1.5-1.2C455.7,67,455,66.8,454.2,66.8"/>
	<path d="M479.7,67.2h-0.3c-0.8,0-1.6,0.1-2.4,0.2c-0.8,0.1-1.5,0.4-2.2,0.7c-0.7,0.3-1.3,0.7-1.8,1.1c-0.5,0.4-1,1-1.4,1.6v14.4
		h-3.4V64.5h2.6l0.7,3.3h0.1c0.3-0.5,0.7-1,1.2-1.5c0.5-0.5,1-0.9,1.6-1.2c0.6-0.4,1.3-0.6,2-0.8c0.7-0.2,1.5-0.3,2.3-0.3
		c0.1,0,0.3,0,0.4,0c0.2,0,0.3,0,0.4,0V67.2z"/>
	<path d="M485.8,70c0,0.6,0.1,1,0.4,1.4c0.2,0.4,0.6,0.7,1,0.9c0.4,0.2,0.9,0.4,1.4,0.6c0.5,0.1,1.1,0.3,1.7,0.4
		c0.8,0.2,1.5,0.4,2.2,0.6c0.7,0.2,1.3,0.5,1.9,0.9c0.6,0.4,1.1,1,1.4,1.7c0.4,0.7,0.5,1.7,0.5,2.8c0,1-0.2,2-0.6,2.8
		c-0.4,0.8-1,1.5-1.7,2c-0.7,0.5-1.6,1-2.7,1.2c-1,0.3-2.2,0.4-3.4,0.4c-0.8,0-1.4,0-2.1-0.1c-0.6-0.1-1.2-0.2-1.6-0.3
		c-0.5-0.1-0.9-0.3-1.2-0.4c-0.3-0.1-0.6-0.3-0.8-0.4v-2.8c0.9,0.3,1.7,0.6,2.5,0.8c0.8,0.2,1.8,0.3,2.8,0.3c0.8,0,1.5-0.1,2.2-0.2
		c0.6-0.1,1.2-0.4,1.7-0.6c0.5-0.3,0.8-0.6,1.1-1.1c0.2-0.4,0.4-0.9,0.4-1.5c0-0.6-0.1-1.1-0.3-1.4c-0.2-0.4-0.5-0.7-0.9-0.9
		c-0.4-0.2-0.8-0.4-1.3-0.6c-0.5-0.2-1-0.3-1.6-0.4c-0.7-0.2-1.5-0.4-2.2-0.6c-0.7-0.2-1.4-0.5-2-0.9c-0.6-0.4-1.1-0.9-1.5-1.6
		c-0.4-0.7-0.6-1.6-0.6-2.6c0-1.1,0.2-2,0.6-2.8c0.4-0.8,0.9-1.5,1.6-2c0.7-0.5,1.4-0.9,2.3-1.2c0.9-0.3,1.8-0.4,2.8-0.4
		c1.1,0,2.2,0.1,3.2,0.3c1,0.2,1.9,0.5,2.7,0.8V68c-0.9-0.3-1.7-0.6-2.6-0.8c-0.9-0.2-1.8-0.3-2.7-0.3c-0.8,0-1.4,0.1-2,0.2
		c-0.6,0.2-1,0.4-1.4,0.7c-0.4,0.3-0.6,0.6-0.8,1C485.8,69.1,485.8,69.5,485.8,70"/>
	<path d="M501.5,55.9h3.4v3.8h-3.4V55.9z M501.6,64.5h3.4v20.7h-3.4V64.5z"/>
	<path d="M510.6,75.1c0-1.4,0.1-2.7,0.4-3.8c0.3-1.1,0.7-2.1,1.1-2.9c0.5-0.8,1-1.5,1.6-2.1c0.6-0.6,1.3-1,1.9-1.4
		c0.7-0.4,1.3-0.6,2-0.7c0.7-0.2,1.3-0.2,2-0.2c1.3,0,2.4,0.2,3.3,0.6c0.9,0.4,1.8,1,2.5,1.9h0.1V53.6h3.4v31.6h-2.6l-0.7-2.3h-0.1
		c-0.3,0.3-0.6,0.7-0.9,1c-0.3,0.3-0.8,0.6-1.2,0.9c-0.5,0.3-1,0.5-1.6,0.7c-0.6,0.2-1.3,0.2-2.2,0.2c-1.1,0-2.2-0.2-3.3-0.6
		c-1.1-0.4-2.1-1-2.9-1.9c-0.8-0.9-1.5-2-2.1-3.3C510.8,78.7,510.6,77,510.6,75.1 M514.1,75.1c0,1.2,0.1,2.3,0.4,3.2
		c0.3,1,0.7,1.8,1.2,2.5c0.5,0.7,1.1,1.2,1.9,1.6c0.7,0.4,1.6,0.5,2.6,0.5c0.7,0,1.4-0.1,1.9-0.3c0.6-0.2,1.1-0.4,1.6-0.7
		c0.5-0.3,0.8-0.6,1.2-0.9c0.3-0.3,0.6-0.6,0.8-0.9V69.2c-0.7-0.7-1.5-1.3-2.4-1.7c-0.9-0.4-1.9-0.6-3-0.6c-0.6,0-1.3,0.1-2,0.4
		c-0.7,0.2-1.4,0.7-2,1.3c-0.6,0.6-1.1,1.5-1.5,2.5C514.3,72.1,514.1,73.4,514.1,75.1"/>
	<path d="M547.9,82.9L547.9,82.9c-0.4,0.4-0.7,0.7-1.1,1c-0.4,0.3-0.9,0.6-1.5,0.9c-0.6,0.3-1.2,0.5-1.8,0.6
		c-0.7,0.2-1.4,0.2-2.1,0.2c-1,0-1.9-0.2-2.8-0.4c-0.8-0.3-1.6-0.7-2.2-1.3c-0.6-0.6-1.1-1.3-1.4-2.1c-0.3-0.8-0.5-1.8-0.5-2.8
		c0-1,0.2-2,0.6-2.8c0.4-0.8,0.9-1.5,1.6-2.1c0.7-0.6,1.5-1,2.4-1.3c0.9-0.3,2-0.5,3.1-0.5c1.1,0,2.1,0.1,3,0.3
		c0.9,0.2,1.7,0.4,2.4,0.7h0.1V72c0-0.6,0-1.1-0.1-1.5c-0.1-0.4-0.2-0.8-0.4-1.2c-0.4-0.7-1-1.3-1.8-1.7c-0.8-0.5-1.9-0.7-3.4-0.7
		c-1,0-2,0.1-3,0.3c-0.9,0.2-1.8,0.5-2.8,0.8v-2.8c0.3-0.2,0.8-0.3,1.2-0.5c0.5-0.2,1-0.3,1.5-0.4c0.5-0.1,1.1-0.2,1.7-0.3
		c0.6-0.1,1.2-0.1,1.7-0.1c2.1,0,3.8,0.4,5.1,1.1c1.3,0.7,2.3,1.7,2.9,2.9c0.2,0.5,0.4,1,0.5,1.5c0.1,0.6,0.1,1.2,0.1,1.8v13.8h-2.8
		L547.9,82.9z M547.7,76.1c-0.6-0.2-1.4-0.3-2.2-0.5c-0.9-0.2-1.8-0.2-2.8-0.3c-1.4,0-2.6,0.3-3.4,0.9c-0.8,0.6-1.2,1.5-1.2,2.8
		c0,0.6,0.1,1.2,0.3,1.7c0.2,0.5,0.5,0.9,0.8,1.2c0.4,0.3,0.8,0.5,1.3,0.7c0.5,0.1,1,0.2,1.6,0.2c0.7,0,1.4-0.1,2-0.3
		c0.6-0.2,1.2-0.5,1.7-0.8c0.5-0.3,0.9-0.6,1.2-0.9c0.3-0.3,0.6-0.5,0.7-0.7V76.1z"/>
	<path d="M556.4,75.1c0-1.4,0.1-2.7,0.4-3.8c0.3-1.1,0.7-2.1,1.1-2.9c0.5-0.8,1-1.5,1.6-2.1c0.6-0.6,1.3-1,1.9-1.4
		c0.7-0.4,1.3-0.6,2-0.7c0.7-0.2,1.3-0.2,2-0.2c1.3,0,2.4,0.2,3.3,0.6c0.9,0.4,1.8,1,2.5,1.9h0.1V53.6h3.4v31.6h-2.6l-0.7-2.3h-0.1
		c-0.3,0.3-0.6,0.7-0.9,1c-0.3,0.3-0.8,0.6-1.2,0.9c-0.5,0.3-1,0.5-1.6,0.7c-0.6,0.2-1.3,0.2-2.2,0.2c-1.1,0-2.2-0.2-3.3-0.6
		c-1.1-0.4-2.1-1-2.9-1.9c-0.8-0.9-1.5-2-2.1-3.3C556.7,78.7,556.4,77,556.4,75.1 M559.9,75.1c0,1.2,0.1,2.3,0.4,3.2
		c0.3,1,0.7,1.8,1.2,2.5c0.5,0.7,1.1,1.2,1.9,1.6c0.7,0.4,1.6,0.5,2.6,0.5c0.7,0,1.4-0.1,1.9-0.3c0.6-0.2,1.1-0.4,1.6-0.7
		c0.5-0.3,0.8-0.6,1.2-0.9c0.3-0.3,0.6-0.6,0.8-0.9V69.2c-0.7-0.7-1.5-1.3-2.4-1.7c-0.9-0.4-1.9-0.6-3-0.6c-0.6,0-1.3,0.1-2,0.4
		c-0.7,0.2-1.4,0.7-2,1.3c-0.6,0.6-1.1,1.5-1.5,2.5C560.1,72.1,559.9,73.4,559.9,75.1"/>
	<path d="M195.8,98.4c-1.6,0-3.2,0.3-4.6,0.8c-1.4,0.5-2.7,1.3-3.7,2.3c-1,1-1.9,2.3-2.5,3.8c-0.6,1.5-0.9,3.3-0.9,5.3
		c0,2,0.3,3.8,0.8,5.2c0.6,1.5,1.4,2.7,2.4,3.7c1,1,2.3,1.7,3.7,2.1c1.5,0.5,3.1,0.7,4.8,0.7c0.5,0,1,0,1.5-0.1
		c0.5-0.1,1.1-0.1,1.6-0.2c0.6-0.1,1.1-0.2,1.6-0.3c0.5-0.1,1-0.3,1.4-0.4v3.1c-0.9,0.3-1.9,0.6-3,0.8c-1.1,0.2-2.3,0.3-3.5,0.3
		c-2.4,0-4.6-0.3-6.5-1c-1.9-0.7-3.5-1.7-4.7-2.9c-1.3-1.3-2.2-2.8-2.9-4.6c-0.7-1.8-1-3.9-1-6.2c0-2.3,0.3-4.4,1-6.3
		c0.7-1.9,1.7-3.5,3-4.9c1.3-1.4,2.9-2.4,4.7-3.2c1.9-0.8,3.9-1.1,6.3-1.1c0.6,0,1.2,0,1.8,0.1c0.6,0,1.2,0.1,1.7,0.2
		c0.5,0.1,1,0.2,1.5,0.3c0.5,0.1,0.9,0.3,1.2,0.4v3.1c-0.9-0.3-1.9-0.5-2.9-0.7C197.9,98.5,196.9,98.4,195.8,98.4"/>
	<path d="M219.8,122.7L219.8,122.7c-0.4,0.3-0.7,0.7-1.1,1c-0.4,0.3-0.9,0.6-1.5,0.9c-0.6,0.3-1.2,0.5-1.8,0.6
		c-0.7,0.2-1.4,0.2-2.1,0.2c-1,0-1.9-0.2-2.8-0.4c-0.8-0.3-1.6-0.7-2.2-1.3c-0.6-0.6-1.1-1.3-1.4-2.1c-0.3-0.8-0.5-1.8-0.5-2.8
		c0-1,0.2-2,0.6-2.8c0.4-0.8,0.9-1.5,1.6-2.1c0.7-0.6,1.5-1,2.4-1.3c0.9-0.3,2-0.5,3.1-0.5c1.1,0,2.1,0.1,3,0.3
		c0.9,0.2,1.7,0.4,2.4,0.7h0.1v-1.4c0-0.6,0-1.1-0.1-1.5c-0.1-0.4-0.2-0.8-0.4-1.2c-0.4-0.7-1-1.3-1.8-1.7c-0.8-0.5-1.9-0.7-3.4-0.7
		c-1,0-2,0.1-3,0.3c-0.9,0.2-1.8,0.5-2.8,0.8v-2.8c0.3-0.2,0.8-0.3,1.2-0.5c0.5-0.2,1-0.3,1.5-0.4c0.5-0.1,1.1-0.2,1.7-0.2
		c0.6-0.1,1.2-0.1,1.7-0.1c2.1,0,3.8,0.4,5.1,1.1c1.3,0.7,2.3,1.7,2.9,2.9c0.2,0.5,0.4,1,0.5,1.5c0.1,0.6,0.1,1.2,0.1,1.8v13.8h-2.8
		L219.8,122.7z M219.6,115.8c-0.6-0.2-1.4-0.3-2.2-0.5c-0.9-0.2-1.8-0.2-2.8-0.3c-1.4,0-2.6,0.3-3.4,0.9c-0.8,0.6-1.2,1.6-1.2,2.8
		c0,0.6,0.1,1.2,0.3,1.7c0.2,0.5,0.5,0.9,0.8,1.2c0.4,0.3,0.8,0.5,1.3,0.7c0.5,0.2,1,0.2,1.6,0.2c0.7,0,1.4-0.1,2-0.3
		c0.6-0.2,1.2-0.5,1.7-0.7c0.5-0.3,0.9-0.6,1.2-0.9c0.3-0.3,0.6-0.5,0.7-0.7V115.8z"/>
	<path d="M240.4,125c-0.3,0.1-0.7,0.2-1.3,0.3c-0.6,0.1-1.3,0.2-2.1,0.2c-1.1,0-2-0.1-2.8-0.4c-0.8-0.3-1.5-0.7-2-1.2
		c-0.5-0.5-0.9-1.1-1.2-1.8c-0.3-0.7-0.4-1.5-0.4-2.4v-12.6h-4v-2.9h4v-5.7h3.4v5.7h6.2v2.9h-6.2v12.1c0,0.5,0.1,0.9,0.2,1.3
		c0.1,0.4,0.4,0.8,0.7,1.1c0.3,0.3,0.7,0.5,1.1,0.7c0.5,0.2,1,0.3,1.7,0.3c0.5,0,0.9,0,1.4-0.1c0.5-0.1,1-0.2,1.4-0.3V125z"/>
	<path d="M263.5,114.6c0,1.6-0.2,3.1-0.7,4.5c-0.5,1.3-1.1,2.5-2,3.4c-0.9,1-1.9,1.7-3.1,2.2c-1.2,0.5-2.6,0.8-4.1,0.8
		c-1.5,0-2.9-0.3-4.1-0.8c-1.2-0.5-2.2-1.3-3.1-2.2c-0.9-1-1.5-2.1-2-3.4c-0.5-1.3-0.7-2.8-0.7-4.5c0-1.6,0.2-3.1,0.7-4.5
		c0.5-1.3,1.1-2.5,2-3.4c0.8-1,1.9-1.7,3.1-2.2c1.2-0.5,2.6-0.8,4.1-0.8c1.5,0,2.9,0.3,4.1,0.8c1.2,0.5,2.3,1.3,3.1,2.2
		c0.8,1,1.5,2.1,1.9,3.4C263.3,111.5,263.5,113,263.5,114.6 M260,114.6c0-1.3-0.2-2.4-0.5-3.4c-0.3-1-0.8-1.8-1.3-2.5
		c-0.6-0.7-1.2-1.2-2-1.6c-0.8-0.4-1.6-0.5-2.5-0.5c-0.9,0-1.8,0.2-2.5,0.5c-0.8,0.4-1.4,0.9-2,1.6c-0.6,0.7-1,1.5-1.3,2.5
		c-0.3,1-0.5,2.1-0.5,3.4c0,1.3,0.2,2.4,0.5,3.4c0.3,1,0.8,1.8,1.3,2.5c0.6,0.7,1.2,1.2,2,1.6c0.8,0.4,1.6,0.5,2.5,0.5
		c0.9,0,1.8-0.2,2.5-0.5c0.8-0.4,1.4-0.9,2-1.6c0.6-0.7,1-1.5,1.3-2.5C259.8,117,260,115.9,260,114.6 M258.8,92.8l-3.5,7.6h-2.8
		l2.7-7.6H258.8z"/>
	<rect x="269.1" y="93.3" width="3.4" height="31.6"/>
	<path d="M279.4,95.6h3.4v3.8h-3.4V95.6z M279.4,104.2h3.4v20.7h-3.4V104.2z"/>
	<path d="M298.5,103.7c1,0,2,0.1,2.9,0.3c0.9,0.2,1.7,0.5,2.4,0.9v2.8c-0.9-0.4-1.8-0.6-2.5-0.8c-0.8-0.2-1.6-0.3-2.4-0.3
		c-0.8,0-1.7,0.1-2.5,0.4c-0.8,0.3-1.6,0.7-2.2,1.4c-0.7,0.6-1.2,1.5-1.6,2.5c-0.4,1-0.6,2.3-0.6,3.9c0,1.1,0.1,2.2,0.4,3.1
		c0.3,0.9,0.7,1.8,1.3,2.4c0.6,0.7,1.3,1.2,2.2,1.6c0.9,0.4,1.9,0.6,3.1,0.6c0.8,0,1.7-0.1,2.6-0.3c0.9-0.2,1.7-0.4,2.5-0.8v2.8
		c-0.2,0.2-0.6,0.3-1,0.4c-0.4,0.2-0.8,0.3-1.3,0.4c-0.5,0.1-1,0.2-1.5,0.3c-0.5,0.1-1.1,0.1-1.6,0.1c-1.4,0-2.7-0.2-4-0.6
		c-1.2-0.4-2.3-1.1-3.3-1.9c-0.9-0.9-1.7-2-2.2-3.3c-0.5-1.3-0.8-2.9-0.8-4.8c0-1.4,0.1-2.6,0.4-3.7c0.3-1.1,0.7-2,1.2-2.9
		c0.5-0.8,1.1-1.5,1.7-2.1c0.7-0.6,1.4-1.1,2.1-1.4c0.7-0.4,1.5-0.6,2.3-0.8C297,103.7,297.7,103.7,298.5,103.7"/>
	<path d="M321.3,122.7L321.3,122.7c-0.4,0.3-0.7,0.7-1.1,1c-0.4,0.3-0.9,0.6-1.5,0.9c-0.6,0.3-1.2,0.5-1.8,0.6
		c-0.7,0.2-1.4,0.2-2.1,0.2c-1,0-1.9-0.2-2.8-0.4c-0.8-0.3-1.6-0.7-2.2-1.3c-0.6-0.6-1.1-1.3-1.4-2.1c-0.3-0.8-0.5-1.8-0.5-2.8
		c0-1,0.2-2,0.6-2.8c0.4-0.8,0.9-1.5,1.6-2.1c0.7-0.6,1.5-1,2.4-1.3c0.9-0.3,2-0.5,3.1-0.5c1.1,0,2.1,0.1,3,0.3
		c0.9,0.2,1.7,0.4,2.4,0.7h0.1v-1.4c0-0.6,0-1.1-0.1-1.5c-0.1-0.4-0.2-0.8-0.4-1.2c-0.4-0.7-1-1.3-1.8-1.7c-0.8-0.5-1.9-0.7-3.4-0.7
		c-1,0-2,0.1-3,0.3c-0.9,0.2-1.8,0.5-2.8,0.8v-2.8c0.3-0.2,0.8-0.3,1.2-0.5c0.5-0.2,1-0.3,1.5-0.4c0.5-0.1,1.1-0.2,1.7-0.2
		c0.6-0.1,1.2-0.1,1.7-0.1c2.1,0,3.8,0.4,5.1,1.1c1.3,0.7,2.3,1.7,2.9,2.9c0.2,0.5,0.4,1,0.5,1.5c0.1,0.6,0.1,1.2,0.1,1.8v13.8h-2.8
		L321.3,122.7z M321.2,115.8c-0.6-0.2-1.4-0.3-2.2-0.5c-0.9-0.2-1.8-0.2-2.8-0.3c-1.4,0-2.6,0.3-3.4,0.9c-0.8,0.6-1.2,1.6-1.2,2.8
		c0,0.6,0.1,1.2,0.3,1.7c0.2,0.5,0.5,0.9,0.8,1.2c0.4,0.3,0.8,0.5,1.3,0.7c0.5,0.2,1,0.2,1.6,0.2c0.7,0,1.4-0.1,2-0.3
		c0.6-0.2,1.2-0.5,1.7-0.7c0.5-0.3,0.9-0.6,1.2-0.9c0.3-0.3,0.6-0.5,0.7-0.7V115.8z"/>
	<path d="M338.8,114.8c0-1.4,0.1-2.7,0.4-3.8c0.3-1.1,0.7-2.1,1.1-2.9c0.5-0.8,1-1.5,1.6-2.1c0.6-0.6,1.3-1,1.9-1.4
		c0.7-0.4,1.3-0.6,2-0.8c0.7-0.2,1.3-0.2,2-0.2c1.3,0,2.4,0.2,3.3,0.6c0.9,0.4,1.8,1,2.5,1.9h0.1V93.3h3.4v31.6h-2.6l-0.7-2.3h-0.1
		c-0.3,0.3-0.6,0.7-0.9,1c-0.3,0.3-0.8,0.7-1.2,0.9c-0.5,0.3-1,0.5-1.6,0.7c-0.6,0.2-1.3,0.2-2.2,0.2c-1.1,0-2.2-0.2-3.3-0.6
		c-1.1-0.4-2.1-1-2.9-1.9c-0.8-0.8-1.5-2-2.1-3.3C339.1,118.4,338.8,116.8,338.8,114.8 M342.4,114.8c0,1.2,0.1,2.3,0.4,3.2
		c0.3,1,0.7,1.8,1.2,2.5c0.5,0.7,1.1,1.2,1.9,1.6c0.7,0.4,1.6,0.5,2.6,0.5c0.7,0,1.4-0.1,1.9-0.3c0.6-0.2,1.1-0.4,1.6-0.7
		c0.5-0.3,0.8-0.6,1.2-0.9c0.3-0.3,0.6-0.6,0.8-0.9v-10.8c-0.7-0.7-1.5-1.3-2.4-1.7c-0.9-0.4-1.9-0.6-3-0.6c-0.6,0-1.3,0.1-2,0.4
		c-0.7,0.2-1.4,0.7-2,1.3c-0.6,0.6-1.1,1.5-1.5,2.5C342.6,111.8,342.4,113.1,342.4,114.8"/>
	<path d="M373.8,122.5c1.1,0,2.1-0.1,3.1-0.3c0.9-0.2,1.8-0.4,2.8-0.8v2.8c-0.7,0.4-1.7,0.7-2.7,0.9c-1.1,0.2-2.3,0.3-3.5,0.3
		c-1.5,0-2.9-0.2-4.2-0.6c-1.3-0.4-2.4-1-3.4-1.8c-0.9-0.8-1.7-1.9-2.2-3.3c-0.5-1.4-0.8-3-0.8-4.9c0-1.9,0.3-3.5,0.8-4.9
		c0.5-1.4,1.2-2.6,2.1-3.5c0.9-0.9,1.9-1.6,3-2.1c1.1-0.5,2.3-0.7,3.6-0.7c1.2,0,2.2,0.2,3.3,0.6c1,0.4,1.9,1,2.6,1.8
		c0.7,0.8,1.3,1.9,1.8,3.2c0.4,1.3,0.6,2.9,0.6,4.7v0.4c0,0.1,0,0.4,0,0.8h-14.3c0,1.3,0.2,2.4,0.6,3.4c0.4,0.9,0.9,1.7,1.6,2.2
		c0.7,0.6,1.5,1,2.4,1.3C371.7,122.4,372.7,122.5,373.8,122.5 M372,106.6c-0.8,0-1.5,0.2-2.2,0.5c-0.7,0.3-1.3,0.7-1.8,1.2
		c-0.5,0.5-0.9,1.1-1.2,1.8c-0.3,0.7-0.5,1.5-0.6,2.3h10.6c0-0.8-0.1-1.6-0.3-2.3c-0.2-0.7-0.5-1.3-0.9-1.8
		c-0.4-0.5-0.9-0.9-1.5-1.2C373.5,106.7,372.8,106.6,372,106.6"/>
	<rect x="386.4" y="93.3" width="3.4" height="31.6"/>
	<polygon points="409.5,121.7 424.5,121.7 424.5,124.9 406,124.9 406,95.7 423.7,95.7 423.7,99 409.5,99 409.5,108.4 422.1,108.4 
		422.1,111.6 409.5,111.6 	"/>
	<path d="M439.1,103.7c1,0,2,0.1,2.9,0.3c0.9,0.2,1.7,0.5,2.4,0.9v2.8c-0.9-0.4-1.8-0.6-2.5-0.8c-0.8-0.2-1.6-0.3-2.4-0.3
		c-0.8,0-1.7,0.1-2.5,0.4c-0.8,0.3-1.6,0.7-2.2,1.4c-0.7,0.6-1.2,1.5-1.6,2.5c-0.4,1-0.6,2.3-0.6,3.9c0,1.1,0.1,2.2,0.4,3.1
		c0.3,0.9,0.7,1.8,1.3,2.4c0.6,0.7,1.3,1.2,2.2,1.6c0.9,0.4,1.9,0.6,3.1,0.6c0.8,0,1.7-0.1,2.6-0.3c0.9-0.2,1.7-0.4,2.5-0.8v2.8
		c-0.2,0.2-0.6,0.3-1,0.4c-0.4,0.2-0.8,0.3-1.3,0.4c-0.5,0.1-1,0.2-1.5,0.3c-0.5,0.1-1.1,0.1-1.6,0.1c-1.4,0-2.7-0.2-4-0.6
		c-1.2-0.4-2.3-1.1-3.3-1.9c-0.9-0.9-1.7-2-2.2-3.3c-0.5-1.3-0.8-2.9-0.8-4.8c0-1.4,0.1-2.6,0.4-3.7c0.3-1.1,0.7-2,1.2-2.9
		c0.5-0.8,1.1-1.5,1.7-2.1c0.7-0.6,1.4-1.1,2.1-1.4c0.7-0.4,1.5-0.6,2.3-0.8C437.5,103.7,438.3,103.7,439.1,103.7"/>
	<path d="M458,125.5c-1.1,0-2-0.1-2.9-0.4c-0.9-0.2-1.6-0.6-2.3-1c-0.6-0.4-1.2-0.9-1.6-1.5c-0.5-0.6-0.8-1.2-1.1-1.9
		c-0.2-0.5-0.4-1.1-0.4-1.7c-0.1-0.6-0.1-1.3-0.1-2v-12.7h3.4v12.7c0,1.2,0.2,2.1,0.5,2.9c0.3,0.9,0.9,1.6,1.7,2.1
		c0.8,0.5,1.8,0.8,3,0.8c1.3,0,2.3-0.3,3.1-0.8c0.8-0.6,1.3-1.3,1.7-2.2c0.2-0.7,0.4-1.6,0.4-2.6v-12.7h3.4V117c0,0.7,0,1.4-0.1,2
		c-0.1,0.6-0.2,1.2-0.4,1.7c-0.3,0.7-0.6,1.4-1.1,2c-0.5,0.6-1,1.1-1.7,1.6c-0.7,0.4-1.4,0.8-2.3,1
		C460.1,125.4,459.1,125.5,458,125.5"/>
	<path d="M485,122.7L485,122.7c-0.4,0.3-0.7,0.7-1.1,1c-0.4,0.3-0.9,0.6-1.5,0.9c-0.6,0.3-1.2,0.5-1.8,0.6c-0.7,0.2-1.4,0.2-2.1,0.2
		c-1,0-1.9-0.2-2.8-0.4c-0.8-0.3-1.6-0.7-2.2-1.3c-0.6-0.6-1.1-1.3-1.4-2.1c-0.3-0.8-0.5-1.8-0.5-2.8c0-1,0.2-2,0.6-2.8
		c0.4-0.8,0.9-1.5,1.6-2.1c0.7-0.6,1.5-1,2.4-1.3c0.9-0.3,2-0.5,3.1-0.5c1.1,0,2.1,0.1,3,0.3c0.9,0.2,1.7,0.4,2.4,0.7h0.1v-1.4
		c0-0.6,0-1.1-0.1-1.5c-0.1-0.4-0.2-0.8-0.4-1.2c-0.4-0.7-1-1.3-1.8-1.7c-0.8-0.5-1.9-0.7-3.4-0.7c-1,0-2,0.1-3,0.3
		c-0.9,0.2-1.8,0.5-2.8,0.8v-2.8c0.3-0.2,0.8-0.3,1.2-0.5c0.5-0.2,1-0.3,1.5-0.4c0.5-0.1,1.1-0.2,1.7-0.2c0.6-0.1,1.2-0.1,1.7-0.1
		c2.1,0,3.8,0.4,5.1,1.1c1.3,0.7,2.3,1.7,2.9,2.9c0.2,0.5,0.4,1,0.5,1.5c0.1,0.6,0.1,1.2,0.1,1.8v13.8h-2.8L485,122.7z M484.9,115.8
		c-0.6-0.2-1.4-0.3-2.2-0.5c-0.8-0.2-1.8-0.2-2.8-0.3c-1.4,0-2.6,0.3-3.4,0.9c-0.8,0.6-1.2,1.6-1.2,2.8c0,0.6,0.1,1.2,0.3,1.7
		c0.2,0.5,0.5,0.9,0.8,1.2c0.4,0.3,0.8,0.5,1.3,0.7c0.5,0.2,1,0.2,1.6,0.2c0.7,0,1.4-0.1,2-0.3c0.6-0.2,1.2-0.5,1.7-0.7
		c0.5-0.3,0.9-0.6,1.2-0.9c0.3-0.3,0.6-0.5,0.7-0.7V115.8z"/>
	<path d="M493.6,114.8c0-1.4,0.1-2.7,0.4-3.8c0.3-1.1,0.7-2.1,1.1-2.9c0.5-0.8,1-1.5,1.6-2.1c0.6-0.6,1.3-1,1.9-1.4
		c0.7-0.4,1.3-0.6,2-0.8c0.7-0.2,1.3-0.2,2-0.2c1.3,0,2.4,0.2,3.3,0.6c0.9,0.4,1.8,1,2.5,1.9h0.1V93.3h3.4v31.6h-2.6l-0.7-2.3h-0.1
		c-0.3,0.3-0.6,0.7-0.9,1c-0.3,0.3-0.8,0.7-1.2,0.9c-0.5,0.3-1,0.5-1.6,0.7c-0.6,0.2-1.3,0.2-2.2,0.2c-1.1,0-2.2-0.2-3.3-0.6
		c-1.1-0.4-2.1-1-2.9-1.9c-0.8-0.8-1.5-2-2.1-3.3C493.9,118.4,493.6,116.8,493.6,114.8 M497.1,114.8c0,1.2,0.1,2.3,0.4,3.2
		c0.3,1,0.7,1.8,1.2,2.5c0.5,0.7,1.1,1.2,1.9,1.6c0.7,0.4,1.6,0.5,2.6,0.5c0.7,0,1.4-0.1,1.9-0.3c0.6-0.2,1.1-0.4,1.6-0.7
		c0.5-0.3,0.8-0.6,1.2-0.9c0.3-0.3,0.6-0.6,0.8-0.9v-10.8c-0.7-0.7-1.5-1.3-2.4-1.7c-0.9-0.4-1.9-0.6-3-0.6c-0.6,0-1.3,0.1-2,0.4
		c-0.7,0.2-1.4,0.7-2,1.3c-0.6,0.6-1.1,1.5-1.5,2.5C497.3,111.8,497.1,113.1,497.1,114.8"/>
	<path d="M537.2,114.6c0,1.6-0.2,3.1-0.7,4.5c-0.5,1.3-1.1,2.5-2,3.4c-0.9,1-1.9,1.7-3.1,2.2c-1.2,0.5-2.6,0.8-4.1,0.8
		c-1.5,0-2.9-0.3-4.1-0.8c-1.2-0.5-2.2-1.3-3.1-2.2c-0.9-1-1.5-2.1-2-3.4c-0.5-1.3-0.7-2.8-0.7-4.5c0-1.6,0.2-3.1,0.7-4.5
		c0.5-1.3,1.1-2.5,2-3.4c0.8-1,1.9-1.7,3.1-2.2c1.2-0.5,2.6-0.8,4.1-0.8c1.5,0,2.9,0.3,4.1,0.8c1.2,0.5,2.3,1.3,3.1,2.2
		c0.8,1,1.5,2.1,1.9,3.4C537,111.5,537.2,113,537.2,114.6 M533.7,114.6c0-1.3-0.2-2.4-0.5-3.4c-0.3-1-0.7-1.8-1.3-2.5
		c-0.6-0.7-1.2-1.2-2-1.6c-0.8-0.4-1.6-0.5-2.5-0.5c-0.9,0-1.8,0.2-2.5,0.5c-0.8,0.4-1.4,0.9-2,1.6c-0.6,0.7-1,1.5-1.3,2.5
		c-0.3,1-0.5,2.1-0.5,3.4c0,1.3,0.2,2.4,0.5,3.4c0.3,1,0.8,1.8,1.3,2.5c0.6,0.7,1.2,1.2,2,1.6c0.8,0.4,1.6,0.5,2.5,0.5
		c0.9,0,1.8-0.2,2.5-0.5c0.8-0.4,1.4-0.9,2-1.6c0.6-0.7,1-1.5,1.3-2.5C533.5,117,533.7,115.9,533.7,114.6"/>
	<path d="M553.9,107h-0.3c-0.8,0-1.6,0.1-2.4,0.2c-0.8,0.2-1.5,0.4-2.2,0.7c-0.7,0.3-1.3,0.7-1.8,1.1c-0.5,0.4-1,1-1.4,1.5v14.5
		h-3.4v-20.7h2.6l0.7,3.3h0.1c0.3-0.5,0.7-1,1.2-1.5c0.5-0.5,1-0.9,1.6-1.2c0.6-0.4,1.3-0.6,2-0.8c0.7-0.2,1.5-0.3,2.3-0.3
		c0.1,0,0.3,0,0.4,0c0.2,0,0.3,0,0.4,0V107z"/>
	<path d="M50.5,37.4c5.7-3.7,12-6.4,18.7-8.2v33.3l3.2,3.2V28.5c2.1-0.4,4.2-0.8,6.4-1v51l6.4,6.4l6.4-6.4v-51
		c2.2,0.2,4.3,0.5,6.4,1v37.2l3.2-3.2V29.3c6.7,1.7,13,4.5,18.7,8.2c1.3,0.8,2.6,1.7,3.8,2.6l4.6-4.6c-1.2-0.9-2.5-1.8-3.7-2.7
		c-9.5-6.4-20.6-10.5-32.6-11.6L85.2,8l-6.8,13.2c-12,1.1-23.1,5.3-32.6,11.6c-1.3,0.9-2.5,1.8-3.7,2.7l4.6,4.6
		C47.9,39.1,49.2,38.3,50.5,37.4"/>
	<path d="M23.1,107.4h33.3l3.2-3.2H22.3c-0.4-2.1-0.8-4.2-1-6.4h51l6.4-6.4L72.4,85h-51c0.2-2.2,0.5-4.3,1-6.4h37.2l-3.2-3.2H23.1
		c1.7-6.7,4.5-13,8.2-18.7c0.8-1.3,1.7-2.6,2.6-3.8l-4.6-4.6c-0.9,1.2-1.8,2.4-2.7,3.7c-6.4,9.5-10.5,20.6-11.6,32.6L1.8,91.4
		l13.2,6.8c1.1,12,5.3,23.1,11.6,32.6c0.9,1.3,1.8,2.5,2.7,3.7l4.6-4.6c-0.9-1.2-1.8-2.5-2.6-3.8C27.6,120.4,24.8,114.1,23.1,107.4"
		/>
	<path d="M119.9,145.3c-5.7,3.7-12,6.4-18.7,8.2v-33.3L98,117v37.2c-2.1,0.4-4.2,0.8-6.4,1v-51l-6.4-6.4l-6.4,6.4v51
		c-2.2-0.2-4.3-0.5-6.4-1V117l-3.2,3.2v33.3c-6.7-1.7-13-4.5-18.7-8.2c-1.3-0.8-2.6-1.7-3.8-2.6l-4.6,4.6c1.2,0.9,2.5,1.8,3.7,2.7
		c9.5,6.4,20.6,10.5,32.6,11.6l6.8,13.2l6.8-13.2c12-1.1,23.1-5.3,32.6-11.6c1.3-0.9,2.5-1.8,3.7-2.7l-4.6-4.6
		C122.4,143.6,121.2,144.5,119.9,145.3"/>
	<path d="M168.6,91.4l-13.2-6.8c-1.1-12-5.3-23.1-11.6-32.6c-0.9-1.3-1.8-2.5-2.7-3.7l-4.6,4.6c0.9,1.2,1.8,2.5,2.6,3.8
		c3.7,5.7,6.4,12,8.2,18.7H114l-3.2,3.2H148c0.4,2.1,0.8,4.2,1,6.4H98l-6.4,6.4l6.4,6.4h51c-0.2,2.2-0.5,4.3-1,6.4h-37.2l3.2,3.2
		h33.3c-1.7,6.7-4.5,13-8.2,18.7c-0.8,1.3-1.7,2.6-2.6,3.8l4.6,4.6c0.9-1.2,1.8-2.5,2.7-3.7c6.4-9.5,10.5-20.6,11.6-32.6L168.6,91.4
		z"/>
</g>
</svg>
